<?xml version="1.0" standalone="no"?>
<!DOCTYPE svg PUBLIC "-//W3C//DTD SVG 1.1//EN" "http://www.w3.org/Graphics/SVG/1.1/DTD/svg11.dtd">
<!--Generator: Xara Designer (www.xara.com), SVG filter version: 4.0.0.1-->
<svg stroke-width="0.501" stroke-linejoin="bevel" fill-rule="evenodd" xmlns:xlink="http://www.w3.org/1999/xlink" xmlns="http://www.w3.org/2000/svg" version="1.1" overflow="visible" width="45pt" height="45pt" viewBox="0 0 45 45">
 <defs>
  <marker id="DefaultArrow2" markerUnits="strokeWidth" viewBox="0 0 1 1" markerWidth="1" markerHeight="1" overflow="visible" orient="auto">
   <!-- REF_ARROW_STRAIGHT (-2) -->
   <g transform="scale(0.0092592592)">
    <!-- 1/108 -->
    <path d="M -9 54 L -9 -54 L 117 0 z"/>
   </g>
  </marker>
  <marker id="DefaultArrow3" markerUnits="strokeWidth" viewBox="0 0 1 1" markerWidth="1" markerHeight="1" overflow="visible" orient="auto">
   <!-- REF_ARROW_ANGLED -->
   <g transform="scale(0.0092592592)">
    <path d="M -27 54 L -9 0 L -27 -54 L 135 0 z"/>
   </g>
  </marker>
  <marker id="DefaultArrow4" markerUnits="strokeWidth" viewBox="0 0 1 1" markerWidth="1" markerHeight="1" overflow="visible" orient="auto">
   <!-- REF_ARROW_ROUNDED -->
   <g transform="scale(0.0092592592)">
    <path d="M -9,0 L -9,-45 C -9,-51.708 2.808,-56.580 9,-54 L 117,-9 C 120.916,-7.369 126.000,-4.242 126,0 C 126,4.242 120.916,7.369 117,9 L 9,54 C 2.808,56.580 -9,51.708 -9,45 z"/>
   </g>
  </marker>
  <marker id="DefaultArrow5" markerUnits="strokeWidth" viewBox="0 0 1 1" markerWidth="1" markerHeight="1" overflow="visible" orient="auto">
   <!-- REF_ARROW_SPOT -->
   <g transform="scale(0.0092592592)">
    <path d="M -54, 0 C -54,29.807 -29.807,54 0,54 C 29.807,54 54,29.807 54,0 C 54,-29.807 29.807,-54 0,-54 C -29.807,-54 -54,-29.807 -54,0 z"/>
   </g>
  </marker>
  <marker id="DefaultArrow6" markerUnits="strokeWidth" viewBox="0 0 1 1" markerWidth="1" markerHeight="1" overflow="visible" orient="auto">
   <!-- REF_ARROW_DIAMOND -->
   <g transform="scale(0.0092592592)">
    <path d="M -63,0 L 0,63 L 63,0 L 0,-63 z"/>
   </g>
  </marker>
  <marker id="DefaultArrow7" markerUnits="strokeWidth" viewBox="0 0 1 1" markerWidth="1" markerHeight="1" overflow="visible" orient="auto">
   <!-- REF_ARROW_FEATHER -->
   <g transform="scale(0.0092592592)">
    <path d="M 18,-54 L 108,-54 L 63,0 L 108,54 L 18, 54 L -36,0 z"/>
   </g>
  </marker>
  <marker id="DefaultArrow8" markerUnits="strokeWidth" viewBox="0 0 1 1" markerWidth="1" markerHeight="1" overflow="visible" orient="auto">
   <!-- REF_ARROW_FEATHER2 -->
   <g transform="scale(0.0092592592)">
    <path d="M -36,0 L 18,-54 L 54,-54 L 18,-18 L 27,-18 L 63,-54 L 99,-54 L 63,-18 L 72,-18 L 108,-54 L 144,-54 L 90,0 L 144,54 L 108,54 L 72,18 L 63,18 L 99,54 L 63,54 L 27,18 L 18,18 L 54,54 L 18,54 z"/>
   </g>
  </marker>
  <marker id="DefaultArrow9" markerUnits="strokeWidth" viewBox="0 0 1 1" markerWidth="1" markerHeight="1" overflow="visible" orient="auto">
   <!-- REF_ARROW_HOLLOWDIAMOND -->
   <g transform="scale(0.0092592592)">
    <path d="M 0,45 L -45,0 L 0, -45 L 45, 0 z M 0, 63 L-63, 0 L 0, -63 L 63, 0 z"/>
   </g>
  </marker>
  <filter id="StainedFilter">
   <feBlend mode="multiply" in2="BackgroundImage" in="SourceGraphic" result="blend"/>
   <feComposite in="blend" in2="SourceAlpha" operator="in" result="comp"/>
  </filter>
  <filter id="BleachFilter">
   <feBlend mode="screen" in2="BackgroundImage" in="SourceGraphic" result="blend"/>
   <feComposite in="blend" in2="SourceAlpha" operator="in" result="comp"/>
  </filter>
  <filter id="InvertTransparencyBitmapFilter">
   <feComponentTransfer>
    <feFuncR type="gamma" amplitude="1.055" exponent=".416666666" offset="-0.055"/>
    <feFuncG type="gamma" amplitude="1.055" exponent=".416666666" offset="-0.055"/>
    <feFuncB type="gamma" amplitude="1.055" exponent=".416666666" offset="-0.055"/>
   </feComponentTransfer>
   <feComponentTransfer>
    <feFuncR type="linear" slope="-1" intercept="1"/>
    <feFuncG type="linear" slope="-1" intercept="1"/>
    <feFuncB type="linear" slope="-1" intercept="1"/>
    <feFuncA type="linear" slope="1" intercept="0"/>
   </feComponentTransfer>
   <feComponentTransfer>
    <feFuncR type="gamma" amplitude="1" exponent="2.4" offset="0"/>
    <feFuncG type="gamma" amplitude="1" exponent="2.4" offset="0"/>
    <feFuncB type="gamma" amplitude="1" exponent="2.4" offset="0"/>
   </feComponentTransfer>
  </filter>
 </defs>
 <g id="Document" fill="none" stroke="black" font-family="Times New Roman" font-size="16" transform="scale(1 -1)">
  <g id="Spread" transform="translate(0 -45)">
   <g id="Layer 1">
    <g id="Group" font-size="50.228" font-family="Cartonsix NC" stroke-linecap="round" stroke="none" fill="#492a15">
     <path d="M 28.35,5.242 L 14.711,5.483 L 11.926,9.359 L 12.047,36.127 L 14.832,39.638 L 25.807,39.759 L 29.683,39.759 L 31.984,38.064 L 32.468,33.582 L 33.074,8.026 L 28.35,5.242 Z M 23.255,7.543 L 25.124,8.007 L 24.95,11.782 L 20.469,11.782 C 19.697,11.193 19.189,10.737 19.742,10.813 L 20.225,8.148 L 23.255,7.543 Z M 27.139,13.598 L 28.714,15.899 L 28.108,34.552 L 27.018,35.399 L 18.467,35.52 L 16.77,33.825 L 16.043,16.505 L 18.467,13.962 L 27.139,13.598 Z" stroke-linejoin="miter" stroke-width="0.258" marker-start="none" marker-end="none" stroke-miterlimit="79.8403193612775"/>
     <text xml:space="preserve" transform="matrix(0 -1 -1 0 -6.158 23.69)" stroke-width="1.931" stroke-linejoin="round" stroke-miterlimit="79.8403193612775"><tspan x="-11.318" y="0">~</tspan></text>
     <text xml:space="preserve" transform="matrix(0 1 -1 0 25.333 24.916)" stroke-width="1.931" stroke-linejoin="round" stroke-miterlimit="79.8403193612775"><tspan x="-11.318" y="0">~</tspan></text>
    </g>
    <g id="Group_1" stroke-linecap="round" stroke="none" fill="#492a15">
     <g id="Group_2">
      <g id="Group_3" fill-rule="nonzero" stroke-linejoin="miter" stroke-width="0.873" stroke-miterlimit="79.8403193612775">
       <path d="M 32.448,-39.584 L 30.151,-39.366 L 30.309,-38.883 C 31.722,-34.546 32.405,-31.635 32.405,-30.098 L 32.405,-29.961 C 32.357,-28.47 31.698,-26.074 30.384,-22.744 L 30.207,-22.298 L 32.371,-21.837 L 32.519,-22.091 C 33.825,-24.329 34.618,-25.906 34.833,-26.762 C 34.973,-27.301 35.034,-28.136 35.034,-29.234 C 35.034,-29.894 35.013,-30.654 34.968,-31.516 C 34.846,-33.889 34.039,-36.498 32.574,-39.34 L 32.448,-39.584 Z" marker-start="none" marker-end="none"/>
      </g>
      <path d="M 37.713,-18.994 C 39.728,-22.901 40.819,-26.453 40.983,-29.651 C 41.044,-30.844 41.075,-31.893 41.075,-32.797 C 41.075,-34.319 40.988,-35.42 40.813,-36.098 C 40.535,-37.199 39.482,-39.316 37.651,-42.452 L 35.693,-42.036 C 37.523,-37.399 38.474,-33.985 38.545,-31.795 L 38.545,-31.595 C 38.545,-29.354 37.564,-25.22 35.6,-19.195 L 37.713,-18.994 Z" fill-rule="nonzero" stroke-linejoin="round" stroke-width="1.214" marker-start="none" marker-end="none" stroke-miterlimit="79.8403193612775"/>
      <path d="M 5.022,-37.598 L 4.439,-28.471 L 4.843,-27.825 L 7.353,-23.811 L 13.178,-23.811 L 21.334,-16.82 L 23.858,-15.267 L 25.8,-15.267 L 25.606,-17.791 L 25.606,-44.589 L 24.052,-47.89 L 22.305,-48.473 L 15.508,-42.452 L 13.372,-40.511 L 8.129,-40.123 L 5.022,-37.598 Z" stroke-width="0.873" stroke-linejoin="miter" marker-start="none" marker-end="none" stroke-miterlimit="79.8403193612775"/>
     </g>
     <text xml:space="preserve" transform="matrix(0.718918 -0.695099 -0.695053 -0.718964 8.91 -51.511) scale(0.489304 1)" font-size="89.837" font-family="Cartonsix NC" stroke-width="2.368" stroke-linejoin="round" stroke-miterlimit="79.8403193612775"><tspan x="-12.5893211089282" y="0">I</tspan></text>
    </g>
   </g>
  </g>
 </g>
</svg>
